# xmcd CD database file
#
# Track frame offsets:
#	150
#	19724
#	43041
#	61292
#	82587
#	102125
#	122380
#	142895
#	163707
#	180134
#	199229
#	218484
#	237362
#	254997
#	269681
#	289699
#	307938
#
# Disc length: 4246 seconds
#
# Revision: 1
# Processed by: cddbd v1.4PL0 Copyright (c) Steve Scherf et al.
# Submitted via: CDex 1.51
#
DISCID=e2109411
DTITLE=TUXEDO BIG BAND - Djangology
DYEAR=2003
DGENRE=Jazz
TTITLE0=Djangology
TTITLE1=Tears
TTITLE2=Swing guitars
TTITLE3=Are you in the mood
TTITLE4=Douce ambiance
TTITLE5=Artillerie lourde
TTITLE6=Swing 41
TTITLE7=Nympheas
TTITLE8=Belleville
TTITLE9=Manoir de mes reves
TTITLE10=I'm coming virginia
TTITLE11=After you've gone
TTITLE12=Uptown blues
TTITLE13=Moten swing
TTITLE14=Nuages
TTITLE15=Place de Bouckere
TTITLE16=Ode a Django
EXTD=YEAR: 2003
EXTT0=
EXTT1=
EXTT2=
EXTT3=
EXTT4=
EXTT5=
EXTT6=
EXTT7=
EXTT8=
EXTT9=
EXTT10=
EXTT11=
EXTT12=
EXTT13=
EXTT14=
EXTT15=
EXTT16=
PLAYORDER=
